<mxfile host="Electron" agent="Mozilla/5.0 (Macintosh; Intel Mac OS X 10_15_7) AppleWebKit/537.36 (KHTML, like Gecko) draw.io/24.7.17 Chrome/128.0.6613.36 Electron/32.0.1 Safari/537.36" version="24.7.17">
  <diagram name="Pagina-1" id="Rz9OJnhix7Ch0VEKGgnG">
    <mxGraphModel dx="1306" dy="947" grid="1" gridSize="10" guides="1" tooltips="1" connect="1" arrows="1" fold="1" page="1" pageScale="1" pageWidth="827" pageHeight="1169" math="0" shadow="0">
      <root>
        <mxCell id="0" />
        <mxCell id="1" parent="0" />
        <mxCell id="1GS9c19QVV5tGs9QhvXW-1" value="" style="endArrow=none;html=1;rounded=0;fillColor=#e51400;strokeColor=#B20000;movable=1;resizable=1;rotatable=1;deletable=1;editable=1;locked=0;connectable=1;" parent="1" source="1GS9c19QVV5tGs9QhvXW-2" edge="1">
          <mxGeometry width="50" height="50" relative="1" as="geometry">
            <mxPoint x="179" y="379" as="sourcePoint" />
            <mxPoint x="209" y="379" as="targetPoint" />
          </mxGeometry>
        </mxCell>
        <mxCell id="1GS9c19QVV5tGs9QhvXW-2" value="" style="shape=waypoint;sketch=0;fillStyle=solid;size=6;pointerEvents=1;points=[];fillColor=#e51400;resizable=1;rotatable=1;perimeter=centerPerimeter;snapToPoint=1;strokeColor=#B20000;rotation=90;movable=1;deletable=1;editable=1;locked=0;connectable=1;fontColor=#ffffff;" parent="1" vertex="1">
          <mxGeometry x="151" y="369" width="20" height="20" as="geometry" />
        </mxCell>
        <mxCell id="1GS9c19QVV5tGs9QhvXW-3" value="&lt;font style=&quot;font-size: 13px;&quot;&gt;rst&lt;/font&gt;" style="text;html=1;align=center;verticalAlign=middle;whiteSpace=wrap;rounded=0;movable=1;resizable=1;rotatable=1;deletable=1;editable=1;locked=0;connectable=1;" parent="1" vertex="1">
          <mxGeometry x="120" y="430" width="30" height="20" as="geometry" />
        </mxCell>
        <mxCell id="1GS9c19QVV5tGs9QhvXW-4" value="&lt;font style=&quot;font-size: 13px;&quot;&gt;set&lt;/font&gt;" style="text;html=1;align=center;verticalAlign=middle;whiteSpace=wrap;rounded=0;movable=1;resizable=1;rotatable=1;deletable=1;editable=1;locked=0;connectable=1;" parent="1" vertex="1">
          <mxGeometry x="120" y="460" width="30" height="20" as="geometry" />
        </mxCell>
        <mxCell id="1GS9c19QVV5tGs9QhvXW-5" value="" style="group;rotation=90;movable=1;resizable=1;rotatable=1;deletable=1;editable=1;locked=0;connectable=1;" parent="1" vertex="1" connectable="0">
          <mxGeometry x="170" y="440" width="20" height="57.5" as="geometry" />
        </mxCell>
        <mxCell id="1GS9c19QVV5tGs9QhvXW-6" value="" style="endArrow=none;html=1;rounded=0;fillColor=#a0522d;strokeColor=#6D1F00;movable=1;resizable=1;rotatable=1;deletable=1;editable=1;locked=0;connectable=1;" parent="1GS9c19QVV5tGs9QhvXW-5" source="1GS9c19QVV5tGs9QhvXW-7" edge="1">
          <mxGeometry width="50" height="50" relative="1" as="geometry">
            <mxPoint x="9" y="29" as="sourcePoint" />
            <mxPoint x="39" y="29" as="targetPoint" />
          </mxGeometry>
        </mxCell>
        <mxCell id="1GS9c19QVV5tGs9QhvXW-7" value="" style="shape=waypoint;sketch=0;fillStyle=solid;size=6;pointerEvents=1;points=[];fillColor=#a0522d;resizable=1;rotatable=1;perimeter=centerPerimeter;snapToPoint=1;strokeColor=#6D1F00;rotation=90;movable=1;deletable=1;editable=1;locked=0;connectable=1;fontColor=#ffffff;" parent="1GS9c19QVV5tGs9QhvXW-5" vertex="1">
          <mxGeometry x="-19" y="19" width="20" height="20" as="geometry" />
        </mxCell>
        <mxCell id="1GS9c19QVV5tGs9QhvXW-8" value="" style="group;rotation=90;flipH=1;movable=1;resizable=1;rotatable=1;deletable=1;editable=1;locked=0;connectable=1;" parent="1" vertex="1" connectable="0">
          <mxGeometry x="890" y="472.5" width="20" height="57.5" as="geometry" />
        </mxCell>
        <mxCell id="1GS9c19QVV5tGs9QhvXW-9" value="" style="endArrow=none;html=1;rounded=0;fillColor=#e1d5e7;strokeColor=#000000;movable=1;resizable=1;rotatable=1;deletable=1;editable=1;locked=0;connectable=1;" parent="1GS9c19QVV5tGs9QhvXW-8" source="1GS9c19QVV5tGs9QhvXW-10" edge="1">
          <mxGeometry width="50" height="50" relative="1" as="geometry">
            <mxPoint x="11" y="29" as="sourcePoint" />
            <mxPoint x="-19" y="29" as="targetPoint" />
          </mxGeometry>
        </mxCell>
        <mxCell id="1GS9c19QVV5tGs9QhvXW-10" value="" style="shape=waypoint;sketch=0;fillStyle=solid;size=6;pointerEvents=1;points=[];fillColor=#e1d5e7;resizable=1;rotatable=1;perimeter=centerPerimeter;snapToPoint=1;strokeColor=#000000;rotation=90;movable=1;deletable=1;editable=1;locked=0;connectable=1;" parent="1GS9c19QVV5tGs9QhvXW-8" vertex="1">
          <mxGeometry x="19" y="19" width="20" height="20" as="geometry" />
        </mxCell>
        <mxCell id="1GS9c19QVV5tGs9QhvXW-11" value="&lt;font style=&quot;font-size: 13px;&quot;&gt;clk&lt;/font&gt;" style="text;html=1;align=center;verticalAlign=middle;whiteSpace=wrap;rounded=0;movable=1;resizable=1;rotatable=1;deletable=1;editable=1;locked=0;connectable=1;" parent="1" vertex="1">
          <mxGeometry x="120" y="370" width="30" height="20" as="geometry" />
        </mxCell>
        <mxCell id="1GS9c19QVV5tGs9QhvXW-12" value="" style="group;rotation=90;movable=1;resizable=1;rotatable=1;deletable=1;editable=1;locked=0;connectable=1;" parent="1" vertex="1" connectable="0">
          <mxGeometry x="170" y="471.25" width="20" height="57.5" as="geometry" />
        </mxCell>
        <mxCell id="1GS9c19QVV5tGs9QhvXW-13" value="" style="endArrow=none;html=1;rounded=0;fillColor=#e1d5e7;strokeColor=#9673a6;movable=1;resizable=1;rotatable=1;deletable=1;editable=1;locked=0;connectable=1;" parent="1GS9c19QVV5tGs9QhvXW-12" source="1GS9c19QVV5tGs9QhvXW-14" edge="1">
          <mxGeometry width="50" height="50" relative="1" as="geometry">
            <mxPoint x="9" y="29" as="sourcePoint" />
            <mxPoint x="39" y="29" as="targetPoint" />
          </mxGeometry>
        </mxCell>
        <mxCell id="1GS9c19QVV5tGs9QhvXW-14" value="" style="shape=waypoint;sketch=0;fillStyle=solid;size=6;pointerEvents=1;points=[];fillColor=#e1d5e7;resizable=1;rotatable=1;perimeter=centerPerimeter;snapToPoint=1;strokeColor=#9673a6;rotation=90;movable=1;deletable=1;editable=1;locked=0;connectable=1;" parent="1GS9c19QVV5tGs9QhvXW-12" vertex="1">
          <mxGeometry x="-19" y="19" width="20" height="20" as="geometry" />
        </mxCell>
        <mxCell id="1GS9c19QVV5tGs9QhvXW-15" value="&lt;font style=&quot;font-size: 13px;&quot;&gt;en&lt;/font&gt;" style="text;html=1;align=center;verticalAlign=middle;whiteSpace=wrap;rounded=0;movable=1;resizable=1;rotatable=1;deletable=1;editable=1;locked=0;connectable=1;" parent="1" vertex="1">
          <mxGeometry x="120" y="400" width="30" height="20" as="geometry" />
        </mxCell>
        <mxCell id="1GS9c19QVV5tGs9QhvXW-16" value="" style="group;rotation=90;movable=1;resizable=1;rotatable=1;deletable=1;editable=1;locked=0;connectable=1;" parent="1" vertex="1" connectable="0">
          <mxGeometry x="170" y="410" width="20" height="57.5" as="geometry" />
        </mxCell>
        <mxCell id="1GS9c19QVV5tGs9QhvXW-17" value="" style="endArrow=none;html=1;rounded=0;fillColor=#e3c800;strokeColor=#B09500;movable=1;resizable=1;rotatable=1;deletable=1;editable=1;locked=0;connectable=1;" parent="1GS9c19QVV5tGs9QhvXW-16" source="1GS9c19QVV5tGs9QhvXW-18" edge="1">
          <mxGeometry width="50" height="50" relative="1" as="geometry">
            <mxPoint x="9" y="29" as="sourcePoint" />
            <mxPoint x="39" y="29" as="targetPoint" />
          </mxGeometry>
        </mxCell>
        <mxCell id="1GS9c19QVV5tGs9QhvXW-18" value="" style="shape=waypoint;sketch=0;fillStyle=solid;size=6;pointerEvents=1;points=[];fillColor=#e3c800;resizable=1;rotatable=1;perimeter=centerPerimeter;snapToPoint=1;strokeColor=#B09500;rotation=90;movable=1;deletable=1;editable=1;locked=0;connectable=1;fontColor=#000000;" parent="1GS9c19QVV5tGs9QhvXW-16" vertex="1">
          <mxGeometry x="-19" y="19" width="20" height="20" as="geometry" />
        </mxCell>
        <mxCell id="1GS9c19QVV5tGs9QhvXW-19" value="&lt;font style=&quot;font-size: 13px;&quot;&gt;count&lt;/font&gt;" style="text;html=1;align=center;verticalAlign=middle;whiteSpace=wrap;rounded=0;movable=1;resizable=1;rotatable=1;deletable=1;editable=1;locked=0;connectable=1;" parent="1" vertex="1">
          <mxGeometry x="925" y="491.25" width="40" height="20" as="geometry" />
        </mxCell>
        <mxCell id="1GS9c19QVV5tGs9QhvXW-20" value="&lt;font style=&quot;font-size: 13px;&quot;&gt;counter&lt;/font&gt;" style="text;html=1;align=center;verticalAlign=middle;whiteSpace=wrap;rounded=0;" parent="1" vertex="1">
          <mxGeometry x="925" y="451.25" width="50" height="20" as="geometry" />
        </mxCell>
        <mxCell id="1GS9c19QVV5tGs9QhvXW-21" value="&lt;font style=&quot;font-size: 13px;&quot;&gt;v_set&lt;/font&gt;" style="text;html=1;align=center;verticalAlign=middle;whiteSpace=wrap;rounded=0;movable=1;resizable=1;rotatable=1;deletable=1;editable=1;locked=0;connectable=1;" parent="1" vertex="1">
          <mxGeometry x="110" y="490" width="40" height="20" as="geometry" />
        </mxCell>
        <mxCell id="1GS9c19QVV5tGs9QhvXW-22" value="" style="group;rotation=90;movable=1;resizable=1;rotatable=1;deletable=1;editable=1;locked=0;connectable=1;" parent="1" vertex="1" connectable="0">
          <mxGeometry x="170" y="380" width="20" height="57.5" as="geometry" />
        </mxCell>
        <mxCell id="1GS9c19QVV5tGs9QhvXW-23" value="" style="endArrow=none;html=1;rounded=0;fillColor=#60a917;strokeColor=#2D7600;movable=1;resizable=1;rotatable=1;deletable=1;editable=1;locked=0;connectable=1;" parent="1GS9c19QVV5tGs9QhvXW-22" source="1GS9c19QVV5tGs9QhvXW-24" edge="1">
          <mxGeometry width="50" height="50" relative="1" as="geometry">
            <mxPoint x="9" y="29" as="sourcePoint" />
            <mxPoint x="39" y="29" as="targetPoint" />
          </mxGeometry>
        </mxCell>
        <mxCell id="1GS9c19QVV5tGs9QhvXW-24" value="" style="shape=waypoint;sketch=0;fillStyle=solid;size=6;pointerEvents=1;points=[];fillColor=#60a917;resizable=1;rotatable=1;perimeter=centerPerimeter;snapToPoint=1;strokeColor=#2D7600;rotation=90;movable=1;deletable=1;editable=1;locked=0;connectable=1;fontColor=#ffffff;" parent="1GS9c19QVV5tGs9QhvXW-22" vertex="1">
          <mxGeometry x="-19" y="19" width="20" height="20" as="geometry" />
        </mxCell>
        <mxCell id="1GS9c19QVV5tGs9QhvXW-25" value="" style="group;rotation=90;flipH=1;movable=1;resizable=1;rotatable=1;deletable=1;editable=1;locked=0;connectable=1;" parent="1" vertex="1" connectable="0">
          <mxGeometry x="890" y="433.75" width="20" height="57.5" as="geometry" />
        </mxCell>
        <mxCell id="1GS9c19QVV5tGs9QhvXW-26" value="" style="endArrow=none;html=1;rounded=0;fillColor=#0050ef;strokeColor=#001DBC;movable=1;resizable=1;rotatable=1;deletable=1;editable=1;locked=0;connectable=1;" parent="1GS9c19QVV5tGs9QhvXW-25" source="1GS9c19QVV5tGs9QhvXW-28" edge="1">
          <mxGeometry width="50" height="50" relative="1" as="geometry">
            <mxPoint x="11" y="29" as="sourcePoint" />
            <mxPoint x="-19" y="29" as="targetPoint" />
          </mxGeometry>
        </mxCell>
        <mxCell id="1GS9c19QVV5tGs9QhvXW-27" value="//" style="edgeLabel;html=1;align=center;verticalAlign=middle;resizable=1;points=[];movable=1;rotatable=1;deletable=1;editable=1;locked=0;connectable=1;" parent="1GS9c19QVV5tGs9QhvXW-26" vertex="1" connectable="0">
          <mxGeometry x="0.1069" relative="1" as="geometry">
            <mxPoint as="offset" />
          </mxGeometry>
        </mxCell>
        <mxCell id="1GS9c19QVV5tGs9QhvXW-28" value="" style="shape=waypoint;sketch=0;fillStyle=solid;size=6;pointerEvents=1;points=[];fillColor=#0050ef;resizable=1;rotatable=1;perimeter=centerPerimeter;snapToPoint=1;strokeColor=#001DBC;rotation=90;movable=1;deletable=1;editable=1;locked=0;connectable=1;fontColor=#ffffff;" parent="1GS9c19QVV5tGs9QhvXW-25" vertex="1">
          <mxGeometry x="19" y="19" width="20" height="20" as="geometry" />
        </mxCell>
        <mxCell id="1GS9c19QVV5tGs9QhvXW-29" value="" style="rounded=0;whiteSpace=wrap;html=1;movable=1;resizable=1;rotatable=1;deletable=1;editable=1;locked=0;connectable=1;" parent="1" vertex="1">
          <mxGeometry x="200" y="320" width="680" height="360" as="geometry" />
        </mxCell>
        <mxCell id="1GS9c19QVV5tGs9QhvXW-30" value="" style="group;rotation=90;movable=1;resizable=1;rotatable=1;deletable=1;editable=1;locked=0;connectable=1;" parent="1" vertex="1" connectable="0">
          <mxGeometry x="770" y="580" width="31" height="57.5" as="geometry" />
        </mxCell>
        <mxCell id="1GS9c19QVV5tGs9QhvXW-31" value="" style="shape=waypoint;sketch=0;fillStyle=solid;size=6;pointerEvents=1;points=[];fillColor=#0050ef;resizable=1;rotatable=1;perimeter=centerPerimeter;snapToPoint=1;strokeColor=#001DBC;rotation=90;movable=1;deletable=1;editable=1;locked=0;connectable=1;fontColor=#ffffff;" parent="1GS9c19QVV5tGs9QhvXW-30" vertex="1">
          <mxGeometry x="-19" y="19" width="20" height="20" as="geometry" />
        </mxCell>
        <mxCell id="1GS9c19QVV5tGs9QhvXW-32" value="" style="endArrow=none;html=1;rounded=0;fillColor=#0050ef;strokeColor=#001DBC;movable=1;resizable=1;rotatable=1;deletable=1;editable=1;locked=0;connectable=1;" parent="1GS9c19QVV5tGs9QhvXW-30" source="1GS9c19QVV5tGs9QhvXW-31" edge="1">
          <mxGeometry width="50" height="50" relative="1" as="geometry">
            <mxPoint x="9" y="29" as="sourcePoint" />
            <mxPoint x="39" y="29" as="targetPoint" />
          </mxGeometry>
        </mxCell>
        <mxCell id="1GS9c19QVV5tGs9QhvXW-33" value="" style="verticalLabelPosition=bottom;shadow=0;dashed=0;align=center;html=1;verticalAlign=top;shape=mxgraph.electrical.logic_gates.inverter_2;movable=1;resizable=1;rotatable=1;deletable=1;editable=1;locked=0;connectable=1;" parent="1GS9c19QVV5tGs9QhvXW-30" vertex="1">
          <mxGeometry x="1" y="19" width="30" height="20" as="geometry" />
        </mxCell>
        <mxCell id="1GS9c19QVV5tGs9QhvXW-34" value="&lt;font style=&quot;font-size: 13px;&quot;&gt;rst&lt;/font&gt;" style="text;html=1;align=center;verticalAlign=middle;whiteSpace=wrap;rounded=0;movable=1;resizable=1;rotatable=1;deletable=1;editable=1;locked=0;connectable=1;" parent="1" vertex="1">
          <mxGeometry x="320" y="460" width="30" height="20" as="geometry" />
        </mxCell>
        <mxCell id="1GS9c19QVV5tGs9QhvXW-35" value="&lt;font style=&quot;font-size: 10px;&quot;&gt;5&lt;/font&gt;" style="text;html=1;align=center;verticalAlign=middle;whiteSpace=wrap;rounded=0;movable=1;resizable=1;rotatable=1;deletable=1;editable=1;locked=0;connectable=1;" parent="1" vertex="1">
          <mxGeometry x="880" y="445" width="30" height="10" as="geometry" />
        </mxCell>
        <mxCell id="1GS9c19QVV5tGs9QhvXW-36" value="&lt;font style=&quot;font-size: 13px;&quot;&gt;set&lt;/font&gt;" style="text;html=1;align=center;verticalAlign=middle;whiteSpace=wrap;rounded=0;movable=1;resizable=1;rotatable=1;deletable=1;editable=1;locked=0;connectable=1;" parent="1" vertex="1">
          <mxGeometry x="280" y="500" width="30" height="20" as="geometry" />
        </mxCell>
        <mxCell id="1GS9c19QVV5tGs9QhvXW-37" value="&lt;font style=&quot;font-size: 13px;&quot;&gt;v_set&lt;/font&gt;" style="text;html=1;align=center;verticalAlign=middle;whiteSpace=wrap;rounded=0;movable=1;resizable=1;rotatable=1;deletable=1;editable=1;locked=0;connectable=1;" parent="1" vertex="1">
          <mxGeometry x="270" y="530" width="40" height="20" as="geometry" />
        </mxCell>
        <mxCell id="1GS9c19QVV5tGs9QhvXW-38" value="&lt;font style=&quot;font-size: 13px;&quot;&gt;count&lt;/font&gt;" style="text;html=1;align=center;verticalAlign=middle;whiteSpace=wrap;rounded=0;movable=1;resizable=1;rotatable=1;deletable=1;editable=1;locked=0;connectable=1;" parent="1" vertex="1">
          <mxGeometry x="530" y="490" width="40" height="20" as="geometry" />
        </mxCell>
        <mxCell id="1GS9c19QVV5tGs9QhvXW-39" value="&lt;font style=&quot;font-size: 13px;&quot;&gt;counter&lt;/font&gt;" style="text;html=1;align=center;verticalAlign=middle;whiteSpace=wrap;rounded=0;movable=1;resizable=1;rotatable=1;deletable=1;editable=1;locked=0;connectable=1;" parent="1" vertex="1">
          <mxGeometry x="530" y="450" width="50" height="20" as="geometry" />
        </mxCell>
        <mxCell id="1GS9c19QVV5tGs9QhvXW-40" value="&lt;font style=&quot;font-size: 10px;&quot;&gt;5&lt;/font&gt;" style="text;html=1;align=center;verticalAlign=middle;whiteSpace=wrap;rounded=0;movable=1;resizable=1;rotatable=1;deletable=1;editable=1;locked=0;connectable=1;" parent="1" vertex="1">
          <mxGeometry x="490" y="445" width="30" height="10" as="geometry" />
        </mxCell>
        <mxCell id="1GS9c19QVV5tGs9QhvXW-41" value="" style="group;rotation=90;movable=1;resizable=1;rotatable=1;deletable=1;editable=1;locked=0;connectable=1;" parent="1" vertex="1" connectable="0">
          <mxGeometry x="330" y="390" width="20" height="57.5" as="geometry" />
        </mxCell>
        <mxCell id="1GS9c19QVV5tGs9QhvXW-42" value="" style="endArrow=none;html=1;rounded=0;fillColor=#e51400;strokeColor=#B20000;movable=1;resizable=1;rotatable=1;deletable=1;editable=1;locked=0;connectable=1;" parent="1GS9c19QVV5tGs9QhvXW-41" source="1GS9c19QVV5tGs9QhvXW-43" edge="1">
          <mxGeometry width="50" height="50" relative="1" as="geometry">
            <mxPoint x="9" y="29" as="sourcePoint" />
            <mxPoint x="39" y="29" as="targetPoint" />
          </mxGeometry>
        </mxCell>
        <mxCell id="1GS9c19QVV5tGs9QhvXW-43" value="" style="shape=waypoint;sketch=0;fillStyle=solid;size=6;pointerEvents=1;points=[];fillColor=#e51400;resizable=1;rotatable=1;perimeter=centerPerimeter;snapToPoint=1;strokeColor=#B20000;rotation=90;movable=1;deletable=1;editable=1;locked=0;connectable=1;fontColor=#ffffff;" parent="1GS9c19QVV5tGs9QhvXW-41" vertex="1">
          <mxGeometry x="-19" y="19" width="20" height="20" as="geometry" />
        </mxCell>
        <mxCell id="1GS9c19QVV5tGs9QhvXW-44" value="" style="group;rotation=90;movable=1;resizable=1;rotatable=1;deletable=1;editable=1;locked=0;connectable=1;" parent="1" vertex="1" connectable="0">
          <mxGeometry x="330" y="420" width="20" height="57.5" as="geometry" />
        </mxCell>
        <mxCell id="1GS9c19QVV5tGs9QhvXW-45" value="" style="endArrow=none;html=1;rounded=0;fillColor=#60a917;strokeColor=#2D7600;movable=1;resizable=1;rotatable=1;deletable=1;editable=1;locked=0;connectable=1;" parent="1GS9c19QVV5tGs9QhvXW-44" source="1GS9c19QVV5tGs9QhvXW-46" edge="1">
          <mxGeometry width="50" height="50" relative="1" as="geometry">
            <mxPoint x="9" y="29" as="sourcePoint" />
            <mxPoint x="39" y="29" as="targetPoint" />
          </mxGeometry>
        </mxCell>
        <mxCell id="1GS9c19QVV5tGs9QhvXW-46" value="" style="shape=waypoint;sketch=0;fillStyle=solid;size=6;pointerEvents=1;points=[];fillColor=#60a917;resizable=1;rotatable=1;perimeter=centerPerimeter;snapToPoint=1;strokeColor=#2D7600;rotation=90;movable=1;deletable=1;editable=1;locked=0;connectable=1;fontColor=#ffffff;" parent="1GS9c19QVV5tGs9QhvXW-44" vertex="1">
          <mxGeometry x="-19" y="19" width="20" height="20" as="geometry" />
        </mxCell>
        <mxCell id="1GS9c19QVV5tGs9QhvXW-47" value="" style="group;rotation=90;movable=1;resizable=1;rotatable=1;deletable=1;editable=1;locked=0;connectable=1;" parent="1" vertex="1" connectable="0">
          <mxGeometry x="330" y="480" width="20" height="57.5" as="geometry" />
        </mxCell>
        <mxCell id="1GS9c19QVV5tGs9QhvXW-48" value="" style="endArrow=none;html=1;rounded=0;fillColor=#a0522d;strokeColor=#6D1F00;movable=1;resizable=1;rotatable=1;deletable=1;editable=1;locked=0;connectable=1;" parent="1GS9c19QVV5tGs9QhvXW-47" source="1GS9c19QVV5tGs9QhvXW-49" edge="1">
          <mxGeometry width="50" height="50" relative="1" as="geometry">
            <mxPoint x="9" y="29" as="sourcePoint" />
            <mxPoint x="39" y="29" as="targetPoint" />
          </mxGeometry>
        </mxCell>
        <mxCell id="1GS9c19QVV5tGs9QhvXW-49" value="" style="shape=waypoint;sketch=0;fillStyle=solid;size=6;pointerEvents=1;points=[];fillColor=#a0522d;resizable=1;rotatable=1;perimeter=centerPerimeter;snapToPoint=1;strokeColor=#6D1F00;rotation=90;movable=1;deletable=1;editable=1;locked=0;connectable=1;fontColor=#ffffff;" parent="1GS9c19QVV5tGs9QhvXW-47" vertex="1">
          <mxGeometry x="-19" y="19" width="20" height="20" as="geometry" />
        </mxCell>
        <mxCell id="1GS9c19QVV5tGs9QhvXW-50" value="" style="group;rotation=90;movable=1;resizable=1;rotatable=1;deletable=1;editable=1;locked=0;connectable=1;" parent="1" vertex="1" connectable="0">
          <mxGeometry x="330" y="511.25" width="20" height="57.5" as="geometry" />
        </mxCell>
        <mxCell id="1GS9c19QVV5tGs9QhvXW-51" value="" style="endArrow=none;html=1;rounded=0;fillColor=#e1d5e7;strokeColor=#9673a6;movable=1;resizable=1;rotatable=1;deletable=1;editable=1;locked=0;connectable=1;" parent="1GS9c19QVV5tGs9QhvXW-50" source="1GS9c19QVV5tGs9QhvXW-52" edge="1">
          <mxGeometry width="50" height="50" relative="1" as="geometry">
            <mxPoint x="9" y="29" as="sourcePoint" />
            <mxPoint x="39" y="29" as="targetPoint" />
          </mxGeometry>
        </mxCell>
        <mxCell id="1GS9c19QVV5tGs9QhvXW-52" value="" style="shape=waypoint;sketch=0;fillStyle=solid;size=6;pointerEvents=1;points=[];fillColor=#e1d5e7;resizable=1;rotatable=1;perimeter=centerPerimeter;snapToPoint=1;strokeColor=#9673a6;rotation=90;movable=1;deletable=1;editable=1;locked=0;connectable=1;" parent="1GS9c19QVV5tGs9QhvXW-50" vertex="1">
          <mxGeometry x="-19" y="19" width="20" height="20" as="geometry" />
        </mxCell>
        <mxCell id="1GS9c19QVV5tGs9QhvXW-53" value="" style="endArrow=none;html=1;rounded=0;entryX=0;entryY=0.5;entryDx=0;entryDy=0;movable=1;resizable=1;rotatable=1;deletable=1;editable=1;locked=0;connectable=1;" parent="1" target="1GS9c19QVV5tGs9QhvXW-97" edge="1">
          <mxGeometry width="50" height="50" relative="1" as="geometry">
            <mxPoint x="230" y="480" as="sourcePoint" />
            <mxPoint x="440" y="460" as="targetPoint" />
          </mxGeometry>
        </mxCell>
        <mxCell id="1GS9c19QVV5tGs9QhvXW-57" value="" style="group;rotation=90;movable=1;resizable=1;rotatable=1;deletable=1;editable=1;locked=0;connectable=1;" parent="1" vertex="1" connectable="0">
          <mxGeometry x="410" y="600" width="30" height="57.5" as="geometry" />
        </mxCell>
        <mxCell id="1GS9c19QVV5tGs9QhvXW-58" value="" style="endArrow=none;html=1;rounded=0;fillColor=#0050ef;strokeColor=#001DBC;movable=1;resizable=1;rotatable=1;deletable=1;editable=1;locked=0;connectable=1;" parent="1GS9c19QVV5tGs9QhvXW-57" source="1GS9c19QVV5tGs9QhvXW-102" edge="1">
          <mxGeometry width="50" height="50" relative="1" as="geometry">
            <mxPoint x="9" y="29" as="sourcePoint" />
            <mxPoint x="39" y="29" as="targetPoint" />
          </mxGeometry>
        </mxCell>
        <mxCell id="1GS9c19QVV5tGs9QhvXW-59" value="" style="shape=waypoint;sketch=0;fillStyle=solid;size=6;pointerEvents=1;points=[];fillColor=#0050ef;resizable=1;rotatable=1;perimeter=centerPerimeter;snapToPoint=1;strokeColor=#001DBC;rotation=90;movable=1;deletable=1;editable=1;locked=0;connectable=1;fontColor=#ffffff;" parent="1GS9c19QVV5tGs9QhvXW-57" vertex="1">
          <mxGeometry x="-19" y="19" width="20" height="20" as="geometry" />
        </mxCell>
        <mxCell id="1GS9c19QVV5tGs9QhvXW-102" value="" style="verticalLabelPosition=bottom;shadow=0;dashed=0;align=center;html=1;verticalAlign=top;shape=mxgraph.electrical.logic_gates.inverter_2;movable=1;resizable=1;rotatable=1;deletable=1;editable=1;locked=0;connectable=1;" parent="1GS9c19QVV5tGs9QhvXW-57" vertex="1">
          <mxGeometry x="1" y="19" width="30" height="20" as="geometry" />
        </mxCell>
        <mxCell id="1GS9c19QVV5tGs9QhvXW-103" value="" style="endArrow=none;html=1;rounded=0;fillColor=#0050ef;strokeColor=#001DBC;movable=1;resizable=1;rotatable=1;deletable=1;editable=1;locked=0;connectable=1;" parent="1GS9c19QVV5tGs9QhvXW-57" source="1GS9c19QVV5tGs9QhvXW-59" target="1GS9c19QVV5tGs9QhvXW-102" edge="1">
          <mxGeometry width="50" height="50" relative="1" as="geometry">
            <mxPoint x="401" y="629" as="sourcePoint" />
            <mxPoint x="449" y="629" as="targetPoint" />
          </mxGeometry>
        </mxCell>
        <mxCell id="1GS9c19QVV5tGs9QhvXW-62" value="" style="group;movable=1;resizable=1;rotatable=1;deletable=1;editable=1;locked=0;connectable=1;" parent="1" vertex="1" connectable="0">
          <mxGeometry x="391.25" y="598.75" width="88.75" height="41.25" as="geometry" />
        </mxCell>
        <mxCell id="1GS9c19QVV5tGs9QhvXW-63" value="" style="group;rotation=90;movable=1;resizable=1;rotatable=1;deletable=1;editable=1;locked=0;connectable=1;" parent="1GS9c19QVV5tGs9QhvXW-62" vertex="1" connectable="0">
          <mxGeometry x="18.75" y="-18.75" width="20" height="57.5" as="geometry" />
        </mxCell>
        <mxCell id="1GS9c19QVV5tGs9QhvXW-64" value="" style="endArrow=none;html=1;rounded=0;fillColor=#0050ef;strokeColor=#001DBC;movable=1;resizable=1;rotatable=1;deletable=1;editable=1;locked=0;connectable=1;" parent="1GS9c19QVV5tGs9QhvXW-63" source="1GS9c19QVV5tGs9QhvXW-65" edge="1">
          <mxGeometry width="50" height="50" relative="1" as="geometry">
            <mxPoint x="9" y="29" as="sourcePoint" />
            <mxPoint x="39" y="29" as="targetPoint" />
          </mxGeometry>
        </mxCell>
        <mxCell id="1GS9c19QVV5tGs9QhvXW-65" value="" style="shape=waypoint;sketch=0;fillStyle=solid;size=6;pointerEvents=1;points=[];fillColor=#0050ef;resizable=1;rotatable=1;perimeter=centerPerimeter;snapToPoint=1;strokeColor=#001DBC;rotation=90;movable=1;deletable=1;editable=1;locked=0;connectable=1;fontColor=#ffffff;" parent="1GS9c19QVV5tGs9QhvXW-63" vertex="1">
          <mxGeometry x="-19" y="19" width="20" height="20" as="geometry" />
        </mxCell>
        <mxCell id="1GS9c19QVV5tGs9QhvXW-66" value="" style="shape=or;whiteSpace=wrap;html=1;movable=1;resizable=1;rotatable=1;deletable=1;editable=1;locked=0;connectable=1;" parent="1GS9c19QVV5tGs9QhvXW-62" vertex="1">
          <mxGeometry x="48.75" y="1.25" width="40" height="40" as="geometry" />
        </mxCell>
        <mxCell id="1GS9c19QVV5tGs9QhvXW-67" value="" style="group;movable=1;resizable=1;rotatable=1;deletable=1;editable=1;locked=0;connectable=1;" parent="1" vertex="1" connectable="0">
          <mxGeometry x="510" y="600" width="88.75" height="41.25" as="geometry" />
        </mxCell>
        <mxCell id="1GS9c19QVV5tGs9QhvXW-68" value="" style="group;rotation=90;movable=1;resizable=1;rotatable=1;deletable=1;editable=1;locked=0;connectable=1;" parent="1GS9c19QVV5tGs9QhvXW-67" vertex="1" connectable="0">
          <mxGeometry x="18.75" y="-18.75" width="20" height="57.5" as="geometry" />
        </mxCell>
        <mxCell id="1GS9c19QVV5tGs9QhvXW-69" value="" style="endArrow=none;html=1;rounded=0;fillColor=#0050ef;strokeColor=#001DBC;movable=1;resizable=1;rotatable=1;deletable=1;editable=1;locked=0;connectable=1;" parent="1GS9c19QVV5tGs9QhvXW-68" source="1GS9c19QVV5tGs9QhvXW-70" edge="1">
          <mxGeometry width="50" height="50" relative="1" as="geometry">
            <mxPoint x="9" y="29" as="sourcePoint" />
            <mxPoint x="39" y="29" as="targetPoint" />
          </mxGeometry>
        </mxCell>
        <mxCell id="1GS9c19QVV5tGs9QhvXW-70" value="" style="shape=waypoint;sketch=0;fillStyle=solid;size=6;pointerEvents=1;points=[];fillColor=#0050ef;resizable=1;rotatable=1;perimeter=centerPerimeter;snapToPoint=1;strokeColor=#001DBC;rotation=90;movable=1;deletable=1;editable=1;locked=0;connectable=1;fontColor=#ffffff;" parent="1GS9c19QVV5tGs9QhvXW-68" vertex="1">
          <mxGeometry x="-19" y="19" width="20" height="20" as="geometry" />
        </mxCell>
        <mxCell id="1GS9c19QVV5tGs9QhvXW-71" value="" style="shape=or;whiteSpace=wrap;html=1;movable=1;resizable=1;rotatable=1;deletable=1;editable=1;locked=0;connectable=1;" parent="1GS9c19QVV5tGs9QhvXW-67" vertex="1">
          <mxGeometry x="48.75" y="1.25" width="40" height="40" as="geometry" />
        </mxCell>
        <mxCell id="1GS9c19QVV5tGs9QhvXW-72" value="" style="group;movable=1;resizable=1;rotatable=1;deletable=1;editable=1;locked=0;connectable=1;" parent="1" vertex="1" connectable="0">
          <mxGeometry x="630" y="600" width="88.75" height="41.25" as="geometry" />
        </mxCell>
        <mxCell id="1GS9c19QVV5tGs9QhvXW-73" value="" style="group;rotation=90;movable=1;resizable=1;rotatable=1;deletable=1;editable=1;locked=0;connectable=1;" parent="1GS9c19QVV5tGs9QhvXW-72" vertex="1" connectable="0">
          <mxGeometry x="18.75" y="-18.75" width="31" height="57.5" as="geometry" />
        </mxCell>
        <mxCell id="1GS9c19QVV5tGs9QhvXW-74" value="" style="shape=waypoint;sketch=0;fillStyle=solid;size=6;pointerEvents=1;points=[];fillColor=#0050ef;resizable=1;rotatable=1;perimeter=centerPerimeter;snapToPoint=1;strokeColor=#001DBC;rotation=90;movable=1;deletable=1;editable=1;locked=0;connectable=1;fontColor=#ffffff;" parent="1GS9c19QVV5tGs9QhvXW-73" vertex="1">
          <mxGeometry x="-19" y="19" width="20" height="20" as="geometry" />
        </mxCell>
        <mxCell id="1GS9c19QVV5tGs9QhvXW-75" value="" style="endArrow=none;html=1;rounded=0;fillColor=#0050ef;strokeColor=#001DBC;movable=1;resizable=1;rotatable=1;deletable=1;editable=1;locked=0;connectable=1;" parent="1GS9c19QVV5tGs9QhvXW-73" source="1GS9c19QVV5tGs9QhvXW-74" edge="1">
          <mxGeometry width="50" height="50" relative="1" as="geometry">
            <mxPoint x="9" y="29" as="sourcePoint" />
            <mxPoint x="39" y="29" as="targetPoint" />
          </mxGeometry>
        </mxCell>
        <mxCell id="1GS9c19QVV5tGs9QhvXW-76" value="" style="verticalLabelPosition=bottom;shadow=0;dashed=0;align=center;html=1;verticalAlign=top;shape=mxgraph.electrical.logic_gates.inverter_2;movable=1;resizable=1;rotatable=1;deletable=1;editable=1;locked=0;connectable=1;" parent="1GS9c19QVV5tGs9QhvXW-73" vertex="1">
          <mxGeometry x="1" y="19" width="30" height="20" as="geometry" />
        </mxCell>
        <mxCell id="1GS9c19QVV5tGs9QhvXW-77" value="&lt;font style=&quot;font-size: 13px;&quot;&gt;counter(1)&lt;/font&gt;" style="text;html=1;align=center;verticalAlign=middle;whiteSpace=wrap;rounded=0;movable=1;resizable=1;rotatable=1;deletable=1;editable=1;locked=0;connectable=1;" parent="1GS9c19QVV5tGs9QhvXW-73" vertex="1">
          <mxGeometry x="-49" y="3.75" width="50" height="20" as="geometry" />
        </mxCell>
        <mxCell id="1GS9c19QVV5tGs9QhvXW-78" value="" style="shape=or;whiteSpace=wrap;html=1;movable=1;resizable=1;rotatable=1;deletable=1;editable=1;locked=0;connectable=1;" parent="1GS9c19QVV5tGs9QhvXW-72" vertex="1">
          <mxGeometry x="48.75" y="1.25" width="40" height="40" as="geometry" />
        </mxCell>
        <mxCell id="1GS9c19QVV5tGs9QhvXW-79" value="" style="group;movable=1;resizable=1;rotatable=1;deletable=1;editable=1;locked=0;connectable=1;" parent="1" vertex="1" connectable="0">
          <mxGeometry x="750" y="600" width="88.75" height="41.25" as="geometry" />
        </mxCell>
        <mxCell id="1GS9c19QVV5tGs9QhvXW-80" value="" style="shape=or;whiteSpace=wrap;html=1;movable=1;resizable=1;rotatable=1;deletable=1;editable=1;locked=0;connectable=1;" parent="1GS9c19QVV5tGs9QhvXW-79" vertex="1">
          <mxGeometry x="48.75" y="1.25" width="40" height="40" as="geometry" />
        </mxCell>
        <mxCell id="1GS9c19QVV5tGs9QhvXW-83" value="&lt;font style=&quot;font-size: 13px;&quot;&gt;counter(4)&lt;/font&gt;" style="text;html=1;align=center;verticalAlign=middle;whiteSpace=wrap;rounded=0;movable=1;resizable=1;rotatable=1;deletable=1;editable=1;locked=0;connectable=1;" parent="1" vertex="1">
          <mxGeometry x="380" y="585" width="50" height="20" as="geometry" />
        </mxCell>
        <mxCell id="1GS9c19QVV5tGs9QhvXW-84" value="&lt;font style=&quot;font-size: 13px;&quot;&gt;counter(2)&lt;/font&gt;" style="text;html=1;align=center;verticalAlign=middle;whiteSpace=wrap;rounded=0;movable=1;resizable=1;rotatable=1;deletable=1;editable=1;locked=0;connectable=1;" parent="1" vertex="1">
          <mxGeometry x="500" y="585" width="50" height="20" as="geometry" />
        </mxCell>
        <mxCell id="1GS9c19QVV5tGs9QhvXW-85" value="&lt;font style=&quot;font-size: 13px;&quot;&gt;counter(0)&lt;/font&gt;" style="text;html=1;align=center;verticalAlign=middle;whiteSpace=wrap;rounded=0;movable=1;resizable=1;rotatable=1;deletable=1;editable=1;locked=0;connectable=1;" parent="1" vertex="1">
          <mxGeometry x="720" y="585" width="50" height="20" as="geometry" />
        </mxCell>
        <mxCell id="1GS9c19QVV5tGs9QhvXW-86" value="" style="endArrow=none;html=1;rounded=0;exitX=1;exitY=0.5;exitDx=0;exitDy=0;exitPerimeter=0;movable=1;resizable=1;rotatable=1;deletable=1;editable=1;locked=0;connectable=1;" parent="1" source="1GS9c19QVV5tGs9QhvXW-66" edge="1">
          <mxGeometry width="50" height="50" relative="1" as="geometry">
            <mxPoint x="510" y="670" as="sourcePoint" />
            <mxPoint x="560" y="630" as="targetPoint" />
            <Array as="points">
              <mxPoint x="520" y="620" />
              <mxPoint x="520" y="630" />
            </Array>
          </mxGeometry>
        </mxCell>
        <mxCell id="1GS9c19QVV5tGs9QhvXW-87" value="" style="endArrow=none;html=1;rounded=0;entryX=0.999;entryY=0.47;entryDx=0;entryDy=0;entryPerimeter=0;movable=1;resizable=1;rotatable=1;deletable=1;editable=1;locked=0;connectable=1;" parent="1" target="1GS9c19QVV5tGs9QhvXW-71" edge="1">
          <mxGeometry width="50" height="50" relative="1" as="geometry">
            <mxPoint x="680" y="630" as="sourcePoint" />
            <mxPoint x="560" y="620" as="targetPoint" />
            <Array as="points">
              <mxPoint x="640" y="630" />
              <mxPoint x="640" y="620" />
            </Array>
          </mxGeometry>
        </mxCell>
        <mxCell id="1GS9c19QVV5tGs9QhvXW-88" value="" style="endArrow=none;html=1;rounded=0;exitX=0;exitY=0.75;exitDx=0;exitDy=0;exitPerimeter=0;movable=1;resizable=1;rotatable=1;deletable=1;editable=1;locked=0;connectable=1;" parent="1" source="1GS9c19QVV5tGs9QhvXW-80" edge="1">
          <mxGeometry width="50" height="50" relative="1" as="geometry">
            <mxPoint x="490" y="670" as="sourcePoint" />
            <mxPoint x="720" y="620" as="targetPoint" />
            <Array as="points">
              <mxPoint x="760" y="631" />
              <mxPoint x="760" y="620" />
            </Array>
          </mxGeometry>
        </mxCell>
        <mxCell id="1GS9c19QVV5tGs9QhvXW-89" value="" style="endArrow=none;html=1;rounded=0;movable=1;resizable=1;rotatable=1;deletable=1;editable=1;locked=0;connectable=1;" parent="1" edge="1">
          <mxGeometry width="50" height="50" relative="1" as="geometry">
            <mxPoint x="230" y="480" as="sourcePoint" />
            <mxPoint x="840" y="620" as="targetPoint" />
            <Array as="points">
              <mxPoint x="230" y="420" />
              <mxPoint x="240" y="390" />
              <mxPoint x="240" y="360" />
              <mxPoint x="860" y="360" />
              <mxPoint x="860" y="620" />
            </Array>
          </mxGeometry>
        </mxCell>
        <mxCell id="1GS9c19QVV5tGs9QhvXW-90" value="" style="group;rotation=90;flipH=1;movable=1;resizable=1;rotatable=1;deletable=1;editable=1;locked=0;connectable=1;" parent="1" vertex="1" connectable="0">
          <mxGeometry x="495" y="432.5" width="20" height="57.5" as="geometry" />
        </mxCell>
        <mxCell id="1GS9c19QVV5tGs9QhvXW-91" value="" style="endArrow=none;html=1;rounded=0;fillColor=#0050ef;strokeColor=#001DBC;movable=1;resizable=1;rotatable=1;deletable=1;editable=1;locked=0;connectable=1;" parent="1GS9c19QVV5tGs9QhvXW-90" source="1GS9c19QVV5tGs9QhvXW-93" edge="1">
          <mxGeometry width="50" height="50" relative="1" as="geometry">
            <mxPoint x="11" y="29" as="sourcePoint" />
            <mxPoint x="-19" y="29" as="targetPoint" />
          </mxGeometry>
        </mxCell>
        <mxCell id="1GS9c19QVV5tGs9QhvXW-92" value="//" style="edgeLabel;html=1;align=center;verticalAlign=middle;resizable=1;points=[];movable=1;rotatable=1;deletable=1;editable=1;locked=0;connectable=1;" parent="1GS9c19QVV5tGs9QhvXW-91" vertex="1" connectable="0">
          <mxGeometry x="0.1069" relative="1" as="geometry">
            <mxPoint as="offset" />
          </mxGeometry>
        </mxCell>
        <mxCell id="1GS9c19QVV5tGs9QhvXW-93" value="" style="shape=waypoint;sketch=0;fillStyle=solid;size=6;pointerEvents=1;points=[];fillColor=#0050ef;resizable=1;rotatable=1;perimeter=centerPerimeter;snapToPoint=1;strokeColor=#001DBC;rotation=90;movable=1;deletable=1;editable=1;locked=0;connectable=1;fontColor=#ffffff;" parent="1GS9c19QVV5tGs9QhvXW-90" vertex="1">
          <mxGeometry x="19" y="19" width="20" height="20" as="geometry" />
        </mxCell>
        <mxCell id="1GS9c19QVV5tGs9QhvXW-94" value="" style="group;rotation=90;flipH=1;movable=1;resizable=1;rotatable=1;deletable=1;editable=1;locked=0;connectable=1;" parent="1" vertex="1" connectable="0">
          <mxGeometry x="495" y="471.25" width="20" height="57.5" as="geometry" />
        </mxCell>
        <mxCell id="1GS9c19QVV5tGs9QhvXW-95" value="" style="endArrow=none;html=1;rounded=0;fillColor=#e1d5e7;strokeColor=#000000;movable=1;resizable=1;rotatable=1;deletable=1;editable=1;locked=0;connectable=1;" parent="1GS9c19QVV5tGs9QhvXW-94" source="1GS9c19QVV5tGs9QhvXW-96" edge="1">
          <mxGeometry width="50" height="50" relative="1" as="geometry">
            <mxPoint x="11" y="29" as="sourcePoint" />
            <mxPoint x="-19" y="29" as="targetPoint" />
          </mxGeometry>
        </mxCell>
        <mxCell id="1GS9c19QVV5tGs9QhvXW-96" value="" style="shape=waypoint;sketch=0;fillStyle=solid;size=6;pointerEvents=1;points=[];fillColor=#e1d5e7;resizable=1;rotatable=1;perimeter=centerPerimeter;snapToPoint=1;strokeColor=#000000;rotation=90;movable=1;deletable=1;editable=1;locked=0;connectable=1;" parent="1GS9c19QVV5tGs9QhvXW-94" vertex="1">
          <mxGeometry x="19" y="19" width="20" height="20" as="geometry" />
        </mxCell>
        <mxCell id="1GS9c19QVV5tGs9QhvXW-97" value="&lt;font style=&quot;font-size: 15px;&quot;&gt;Counter&lt;/font&gt;&lt;div&gt;&lt;font style=&quot;font-size: 15px;&quot;&gt;mod_32&lt;/font&gt;&lt;/div&gt;" style="rounded=0;whiteSpace=wrap;html=1;movable=1;resizable=1;rotatable=1;deletable=1;editable=1;locked=0;connectable=1;" parent="1" vertex="1">
          <mxGeometry x="360" y="400" width="120" height="160" as="geometry" />
        </mxCell>
        <mxCell id="1GS9c19QVV5tGs9QhvXW-98" value="" style="group;flipV=1;movable=1;resizable=1;rotatable=1;deletable=1;editable=1;locked=0;connectable=1;" parent="1" vertex="1" connectable="0">
          <mxGeometry x="210" y="350" width="20" height="57.5" as="geometry" />
        </mxCell>
        <mxCell id="1GS9c19QVV5tGs9QhvXW-99" value="" style="endArrow=none;html=1;rounded=0;fillColor=#e3c800;strokeColor=#B09500;movable=1;resizable=1;rotatable=1;deletable=1;editable=1;locked=0;connectable=1;" parent="1GS9c19QVV5tGs9QhvXW-98" source="1GS9c19QVV5tGs9QhvXW-100" edge="1">
          <mxGeometry width="50" height="50" relative="1" as="geometry">
            <mxPoint x="9.870000000000005" y="27.5" as="sourcePoint" />
            <mxPoint x="9.870000000000005" y="57.5" as="targetPoint" />
          </mxGeometry>
        </mxCell>
        <mxCell id="1GS9c19QVV5tGs9QhvXW-100" value="" style="shape=waypoint;sketch=0;fillStyle=solid;size=6;pointerEvents=1;points=[];fillColor=#e3c800;resizable=1;rotatable=1;perimeter=centerPerimeter;snapToPoint=1;strokeColor=#B09500;movable=1;deletable=1;editable=1;locked=0;connectable=1;fontColor=#000000;" parent="1GS9c19QVV5tGs9QhvXW-98" vertex="1">
          <mxGeometry width="20" height="20" as="geometry" />
        </mxCell>
        <mxCell id="1GS9c19QVV5tGs9QhvXW-101" value="" style="shape=xor;whiteSpace=wrap;html=1;rotation=90;movable=1;resizable=1;rotatable=1;deletable=1;editable=1;locked=0;connectable=1;" parent="1" vertex="1">
          <mxGeometry x="210" y="380" width="40" height="40" as="geometry" />
        </mxCell>
        <mxCell id="1GS9c19QVV5tGs9QhvXW-60" value="&lt;font style=&quot;font-size: 13px;&quot;&gt;counter(3)&lt;/font&gt;" style="text;html=1;align=center;verticalAlign=middle;whiteSpace=wrap;rounded=0;movable=1;resizable=1;rotatable=1;deletable=1;editable=1;locked=0;connectable=1;" parent="1" vertex="1">
          <mxGeometry x="370" y="637.5" width="50" height="20" as="geometry" />
        </mxCell>
      </root>
    </mxGraphModel>
  </diagram>
</mxfile>
